<svg width="12" height="23" viewBox="0 0 12 23" fill="none" xmlns="http://www.w3.org/2000/svg">
<g clip-path="url(#clip0_6033_42065)">
<path d="M9.00253 20.4992H3.00253M9.00253 22.4992H3.00253M9.74786 13.4965V3.99915C9.74786 3.33611 9.48447 2.70023 9.01563 2.23139C8.54679 1.76255 7.9109 1.49915 7.24786 1.49915C6.9195 1.49898 6.59434 1.56352 6.29094 1.6891C5.98755 1.81467 5.71188 1.99881 5.4797 2.231C5.24752 2.46318 5.06338 2.73884 4.9378 3.04224C4.81223 3.34563 4.74768 3.6708 4.74786 3.99915V13.4965M7.26919 13.4632V3.96582C7.26919 3.30278 7.0058 2.66689 6.53696 2.19805C6.06812 1.72921 5.43223 1.46582 4.76919 1.46582C4.44084 1.46565 4.11567 1.53019 3.81228 1.65577C3.50888 1.78134 3.23322 1.96548 3.00104 2.19766C2.76885 2.42984 2.58471 2.70551 2.45914 3.0089C2.33356 3.3123 2.26902 3.63747 2.26919 3.96582V13.4632M11.2399 13.4992H0.755859V16.5152C0.755859 17.0413 0.964887 17.546 1.33696 17.9181C1.70903 18.2901 2.21367 18.4992 2.73986 18.4992H9.25586C9.78205 18.4992 10.2867 18.2901 10.6588 17.9181C11.0308 17.546 11.2399 17.0413 11.2399 16.5152V13.4992Z" stroke="#00A443" stroke-width="0.992" stroke-linejoin="round"/>
</g>
<defs>
<clipPath id="clip0_6033_42065">
<rect width="12" height="23" fill="white"/>
</clipPath>
</defs>
</svg>
