<svg width="32" height="27" viewBox="0 0 32 27" fill="none" xmlns="http://www.w3.org/2000/svg">
<path d="M31.2361 0H0.763851C0.341005 0 0 0.341005 0 0.763851V25.5072C0 25.93 0.341005 26.271 0.763851 26.271H31.2361C31.6589 26.271 31.9999 25.93 31.9999 25.5072V0.763851C31.9999 0.341005 31.6589 0 31.2361 0ZM1.5277 24.7433V1.51406H30.4859V7.39299H14.9633C14.5405 7.39299 14.1995 7.734 14.1995 8.15684V18.1142C14.1995 18.537 14.5405 18.878 14.9633 18.878H30.4859V24.757H1.5277V24.7433ZM30.4859 17.3503H15.7272V8.92069H30.4859V17.3503Z" fill="#00A443"/>
</svg>
