<svg width="14" height="22" viewBox="0 0 14 22" fill="none" xmlns="http://www.w3.org/2000/svg">
<g clip-path="url(#clip0_6033_42031)">
<path fill-rule="evenodd" clip-rule="evenodd" d="M7.00186 0.995906C6.47037 0.995906 5.96064 1.20704 5.58482 1.58286C5.45576 1.71192 5.34612 1.85677 5.25778 2.01287C5.34726 2.00693 5.43754 2.00391 5.52853 2.00391H8.47519C8.56618 2.00391 8.65646 2.00693 8.74594 2.01287C8.6576 1.85677 8.54796 1.71192 8.4189 1.58286C8.04308 1.20704 7.53335 0.995906 7.00186 0.995906ZM9.9066 2.26603C9.77529 1.74638 9.50574 1.2668 9.12035 0.881415C8.55849 0.319555 7.79645 0.00390625 7.00186 0.00390625C6.20727 0.00390625 5.44523 0.319555 4.88337 0.881415C4.49798 1.2668 4.22843 1.74638 4.09712 2.26603C2.58219 2.843 1.50586 4.30909 1.50586 6.02657V12.9732C1.50586 15.1949 3.30687 16.9959 5.52853 16.9959H8.47519C10.6969 16.9959 12.4979 15.1949 12.4979 12.9732V6.02657C12.4979 4.30909 11.4215 2.843 9.9066 2.26603ZM5.52853 2.99591C3.85474 2.99591 2.49786 4.35278 2.49786 6.02657V8.00391H7.33653L9.20426 6.60311C9.31332 6.52131 9.45124 6.48801 9.5856 6.51103C9.71997 6.53404 9.83894 6.61135 9.91456 6.72478L10.7673 8.00391H11.5059V6.02657C11.5059 4.35278 10.149 2.99591 8.47519 2.99591H5.52853ZM11.5059 8.99591H10.5019C10.336 8.99591 10.1812 8.91302 10.0892 8.77504L9.38 7.7113L7.79946 8.89671C7.7136 8.9611 7.60918 8.99591 7.50186 8.99591H2.49786V12.9732C2.49786 14.647 3.85474 16.0039 5.52853 16.0039H8.47519C10.149 16.0039 11.5059 14.647 11.5059 12.9732V8.99591ZM1.17626 19.1743C1.92566 18.4249 2.94205 18.0039 4.00186 18.0039H10.0019C11.0617 18.0039 12.0781 18.4249 12.8275 19.1743C13.5769 19.9237 13.9979 20.9401 13.9979 21.9999H13.0059C13.0059 21.2032 12.6894 20.4391 12.126 19.8758C11.5627 19.3124 10.7986 18.9959 10.0019 18.9959H4.00186C3.20515 18.9959 2.44107 19.3124 1.87771 19.8758C1.31435 20.4391 0.997859 21.2032 0.997859 21.9999H0.00585938C0.00585938 20.9401 0.426865 19.9237 1.17626 19.1743Z" fill="#00A443"/>
</g>
<defs>
<clipPath id="clip0_6033_42031">
<rect width="14" height="22" fill="white"/>
</clipPath>
</defs>
</svg>
