<svg width="19" height="21" viewBox="0 0 19 21" fill="none" xmlns="http://www.w3.org/2000/svg">
<g clip-path="url(#clip0_6033_42061)">
<path d="M3.99867 20.9988V16.1441C3.99845 15.7914 3.91107 15.4442 3.74428 15.1334C3.57749 14.8227 3.33647 14.5579 3.04267 14.3628L1.95333 13.6348C1.66 13.439 1.41952 13.1739 1.25321 12.8629C1.08691 12.552 0.999936 12.2048 1 11.8521V8.00012C0.999824 7.14357 1.16849 6.2954 1.49636 5.50409C1.82422 4.71278 2.30485 3.99386 2.91077 3.38844C3.51668 2.78303 4.23599 2.30298 5.02757 1.97576C5.81914 1.64855 6.66746 1.48057 7.524 1.48145H9.484C11.2125 1.48145 12.8702 2.16809 14.0925 3.39033C15.3147 4.61257 16.0013 6.27028 16.0013 7.99878L18.4013 12.3988C18.4629 12.5113 18.4941 12.6379 18.4919 12.7661C18.4897 12.8943 18.4542 13.0197 18.3888 13.1301C18.3234 13.2404 18.2305 13.3318 18.119 13.3953C18.0076 13.4587 17.8816 13.4921 17.7533 13.4921H15.9987V16.7534C15.9987 17.1148 15.9274 17.4727 15.789 17.8065C15.6506 18.1403 15.4477 18.4436 15.192 18.6989C14.9363 18.9543 14.6327 19.1567 14.2987 19.2946C13.9647 19.4326 13.6067 19.5033 13.2453 19.5028H11.732C10.2133 19.5028 8.98267 18.5174 8.98267 16.9988M6.99867 15.4828H10.9987M12.752 7.75212C12.7521 7.07534 12.5692 6.41113 12.2227 5.8298C11.8762 5.24846 11.3789 4.77164 10.7836 4.44979C10.1882 4.12795 9.51694 3.97307 8.84077 4.00154C8.16459 4.03001 7.5087 4.24078 6.94251 4.61153C6.37632 4.98228 5.92092 5.49922 5.6245 6.10762C5.32808 6.71603 5.20167 7.39326 5.25867 8.06763C5.31566 8.742 5.55393 9.38841 5.94826 9.93844C6.34258 10.4885 6.87829 10.9216 7.49867 11.1921V13.5188H10.4987V11.1921C11.1685 10.9005 11.7385 10.4196 12.1388 9.80846C12.5391 9.19736 12.7522 8.48265 12.752 7.75212Z" stroke="#00A443" stroke-width="0.992" stroke-linejoin="round"/>
</g>
<defs>
<clipPath id="clip0_6033_42061">
<rect width="19" height="21" fill="white"/>
</clipPath>
</defs>
</svg>
