<svg width="32" height="21" viewBox="0 0 32 21" fill="none" xmlns="http://www.w3.org/2000/svg">
<path d="M4.48037 3.03711H3.125V17.5753H4.48037V3.03711Z" fill="#00A443"/>
<path d="M6.03612 3.03711H5.45117V17.5753H6.03612V3.03711Z" fill="#00A443"/>
<path d="M8.36123 3.03711H7.00586V17.5753H8.36123V3.03711Z" fill="#00A443"/>
<path d="M9.91308 3.03711H9.32812V17.5753H9.91308V3.03711Z" fill="#00A443"/>
<path d="M12.2245 3.03711H10.8691V17.5753H12.2245V3.03711Z" fill="#00A443"/>
<path d="M15.1376 3.03711H13.1973V17.5753H15.1376V3.03711Z" fill="#00A443"/>
<path d="M17.4628 3.03711H16.1074V17.5753H17.4628V3.03711Z" fill="#00A443"/>
<path d="M19.787 3.03711H18.4316V17.5753H19.787V3.03711Z" fill="#00A443"/>
<path d="M21.5302 3.03711H20.7598V17.5753H21.5302V3.03711Z" fill="#00A443"/>
<path d="M23.869 3.03711H22.5137V17.5753H23.869V3.03711Z" fill="#00A443"/>
<path d="M26.7782 3.03711H24.8379V17.5753H26.7782V3.03711Z" fill="#00A443"/>
<path d="M29.1034 3.03711H27.748V17.5753H29.1034V3.03711Z" fill="#00A443"/>
<path d="M31.2298 0H27.7344V1.51231H30.4594V4.39426H31.9717V0.756154C31.9717 0.342409 31.6293 0 31.2155 0H31.2298Z" fill="#00A443"/>
<path d="M30.4731 18.9339H27.748V20.4462H31.2435C31.6572 20.4462 31.9996 20.1038 31.9996 19.6901V16.0234H30.4873V18.9339H30.4731Z" fill="#00A443"/>
<path d="M0 0.756154V4.39426H1.51231V1.51231H4.47986V0H0.756155C0.34241 0 0 0.342409 0 0.756154Z" fill="#00A443"/>
<path d="M1.51231 16.0234H0V19.6901C0 20.1038 0.34241 20.4462 0.756155 20.4462H4.47986V18.9339H1.51231V16.0234Z" fill="#00A443"/>
</svg>
